<mxfile host="drawio-plugin" modified="2024-10-19T08:16:30.362Z" agent="Mozilla/5.0 (Windows NT 10.0; Win64; x64) AppleWebKit/537.36 (KHTML, like Gecko) Chrome/122.0.0.0 Safari/537.36" etag="irhmLufBjNkTBWhHqoDd" version="22.1.22" type="embed">
  <diagram id="WKx_9pv-thgTTZTaxB4N" name="Page-1">
    <mxGraphModel dx="425" dy="1355" grid="1" gridSize="10" guides="1" tooltips="1" connect="1" arrows="1" fold="1" page="1" pageScale="1" pageWidth="850" pageHeight="1100" math="0" shadow="0">
      <root>
        <mxCell id="0" />
        <mxCell id="1" parent="0" />
        <mxCell id="7" value="" style="ellipse;whiteSpace=wrap;html=1;aspect=fixed;" parent="1" vertex="1">
          <mxGeometry x="60" y="-60" width="390" height="390" as="geometry" />
        </mxCell>
        <mxCell id="3" value="" style="ellipse;whiteSpace=wrap;html=1;aspect=fixed;" parent="1" vertex="1">
          <mxGeometry x="40" y="80" width="240" height="240" as="geometry" />
        </mxCell>
        <mxCell id="2" value="局部命名空间就是函数内部的命名&lt;br&gt;包括函数和命名" style="ellipse;whiteSpace=wrap;html=1;aspect=fixed;" parent="1" vertex="1">
          <mxGeometry x="40" y="200" width="130" height="130" as="geometry" />
        </mxCell>
        <mxCell id="4" value="全局命名空间就是这个模块的内部的所有的命名 包括函数的命名" style="text;html=1;strokeColor=none;fillColor=none;align=center;verticalAlign=middle;whiteSpace=wrap;rounded=0;rotation=0;" parent="1" vertex="1">
          <mxGeometry x="110" y="130" width="90" height="30" as="geometry" />
        </mxCell>
        <mxCell id="8" value="内置命名空间就是通过使用builtins所得到的内置函数和变量" style="text;html=1;strokeColor=none;fillColor=none;align=center;verticalAlign=middle;whiteSpace=wrap;rounded=0;" parent="1" vertex="1">
          <mxGeometry x="200" y="30" width="175" height="30" as="geometry" />
        </mxCell>
      </root>
    </mxGraphModel>
  </diagram>
</mxfile>
